<?xml version="1.0" encoding="utf-8" standalone="no"?>
<!DOCTYPE svg PUBLIC "-//W3C//DTD SVG 1.1//EN"
  "http://www.w3.org/Graphics/SVG/1.1/DTD/svg11.dtd">
<svg xmlns:xlink="http://www.w3.org/1999/xlink" width="682.535938pt" height="394.355625pt" viewBox="0 0 682.535938 394.355625" xmlns="http://www.w3.org/2000/svg" version="1.1">
 <metadata>
  <rdf:RDF xmlns:dc="http://purl.org/dc/elements/1.1/" xmlns:cc="http://creativecommons.org/ns#" xmlns:rdf="http://www.w3.org/1999/02/22-rdf-syntax-ns#">
   <cc:Work>
    <dc:type rdf:resource="http://purl.org/dc/dcmitype/StillImage"/>
    <dc:date>2026-04-11T11:30:30.684574</dc:date>
    <dc:format>image/svg+xml</dc:format>
    <dc:creator>
     <cc:Agent>
      <dc:title>Matplotlib v3.10.5, https://matplotlib.org/</dc:title>
     </cc:Agent>
    </dc:creator>
   </cc:Work>
  </rdf:RDF>
 </metadata>
 <defs>
  <style type="text/css">*{stroke-linejoin: round; stroke-linecap: butt}</style>
 </defs>
 <g id="figure_1">
  <g id="patch_1">
   <path d="M 0 394.355625 
L 682.535938 394.355625 
L 682.535938 0 
L 0 0 
L 0 394.355625 
z
" style="fill: none"/>
  </g>
  <g id="axes_1">
   <g id="patch_2">
    <path d="M 140.92 334.087188 
L 655.875 334.087188 
L 655.875 32.127187 
L 140.92 32.127187 
L 140.92 334.087188 
z
" style="fill: none"/>
   </g>
   <g id="matplotlib.axis_1">
    <g id="xtick_1">
     <g id="line2d_1">
      <path d="M 140.92 334.087188 
L 140.92 32.127187 
" clip-path="url(#pd727519b1c)" style="fill: none; stroke: #b0b0b0; stroke-opacity: 0.2; stroke-width: 0.5; stroke-linecap: square"/>
     </g>
     <g id="line2d_2">
      <defs>
       <path id="mf0c30257c6" d="M 0 0 
L 0 3.5 
" style="stroke: #000000; stroke-width: 0.8"/>
      </defs>
      <g>
       <use xlink:href="#mf0c30257c6" x="140.92" y="334.087188" style="stroke: #000000; stroke-width: 0.8"/>
      </g>
     </g>
     <g id="text_1">
      <!-- 0.40 -->
      <g transform="translate(121.459062 355.402813) scale(0.2 -0.2)">
       <defs>
        <path id="ArialMT-30" d="M 266 2259 
Q 266 3072 433 3567 
Q 600 4063 929 4331 
Q 1259 4600 1759 4600 
Q 2128 4600 2406 4451 
Q 2684 4303 2865 4023 
Q 3047 3744 3150 3342 
Q 3253 2941 3253 2259 
Q 3253 1453 3087 958 
Q 2922 463 2592 192 
Q 2263 -78 1759 -78 
Q 1097 -78 719 397 
Q 266 969 266 2259 
z
M 844 2259 
Q 844 1131 1108 757 
Q 1372 384 1759 384 
Q 2147 384 2411 759 
Q 2675 1134 2675 2259 
Q 2675 3391 2411 3762 
Q 2147 4134 1753 4134 
Q 1366 4134 1134 3806 
Q 844 3388 844 2259 
z
" transform="scale(0.015625)"/>
        <path id="ArialMT-2e" d="M 581 0 
L 581 641 
L 1222 641 
L 1222 0 
L 581 0 
z
" transform="scale(0.015625)"/>
        <path id="ArialMT-34" d="M 2069 0 
L 2069 1097 
L 81 1097 
L 81 1613 
L 2172 4581 
L 2631 4581 
L 2631 1613 
L 3250 1613 
L 3250 1097 
L 2631 1097 
L 2631 0 
L 2069 0 
z
M 2069 1613 
L 2069 3678 
L 634 1613 
L 2069 1613 
z
" transform="scale(0.015625)"/>
       </defs>
       <use xlink:href="#ArialMT-30"/>
       <use xlink:href="#ArialMT-2e" transform="translate(55.615234 0)"/>
       <use xlink:href="#ArialMT-34" transform="translate(83.398438 0)"/>
       <use xlink:href="#ArialMT-30" transform="translate(139.013672 0)"/>
      </g>
     </g>
    </g>
    <g id="xtick_2">
     <g id="line2d_3">
      <path d="M 226.745833 334.087188 
L 226.745833 32.127187 
" clip-path="url(#pd727519b1c)" style="fill: none; stroke: #b0b0b0; stroke-opacity: 0.2; stroke-width: 0.5; stroke-linecap: square"/>
     </g>
     <g id="line2d_4">
      <g>
       <use xlink:href="#mf0c30257c6" x="226.745833" y="334.087188" style="stroke: #000000; stroke-width: 0.8"/>
      </g>
     </g>
     <g id="text_2">
      <!-- 0.45 -->
      <g transform="translate(207.284896 355.402813) scale(0.2 -0.2)">
       <defs>
        <path id="ArialMT-35" d="M 266 1200 
L 856 1250 
Q 922 819 1161 601 
Q 1400 384 1738 384 
Q 2144 384 2425 690 
Q 2706 997 2706 1503 
Q 2706 1984 2436 2262 
Q 2166 2541 1728 2541 
Q 1456 2541 1237 2417 
Q 1019 2294 894 2097 
L 366 2166 
L 809 4519 
L 3088 4519 
L 3088 3981 
L 1259 3981 
L 1013 2750 
Q 1425 3038 1878 3038 
Q 2478 3038 2890 2622 
Q 3303 2206 3303 1553 
Q 3303 931 2941 478 
Q 2500 -78 1738 -78 
Q 1113 -78 717 272 
Q 322 622 266 1200 
z
" transform="scale(0.015625)"/>
       </defs>
       <use xlink:href="#ArialMT-30"/>
       <use xlink:href="#ArialMT-2e" transform="translate(55.615234 0)"/>
       <use xlink:href="#ArialMT-34" transform="translate(83.398438 0)"/>
       <use xlink:href="#ArialMT-35" transform="translate(139.013672 0)"/>
      </g>
     </g>
    </g>
    <g id="xtick_3">
     <g id="line2d_5">
      <path d="M 312.571667 334.087188 
L 312.571667 32.127187 
" clip-path="url(#pd727519b1c)" style="fill: none; stroke: #b0b0b0; stroke-opacity: 0.2; stroke-width: 0.5; stroke-linecap: square"/>
     </g>
     <g id="line2d_6">
      <g>
       <use xlink:href="#mf0c30257c6" x="312.571667" y="334.087188" style="stroke: #000000; stroke-width: 0.8"/>
      </g>
     </g>
     <g id="text_3">
      <!-- 0.50 -->
      <g transform="translate(293.110729 355.402813) scale(0.2 -0.2)">
       <use xlink:href="#ArialMT-30"/>
       <use xlink:href="#ArialMT-2e" transform="translate(55.615234 0)"/>
       <use xlink:href="#ArialMT-35" transform="translate(83.398438 0)"/>
       <use xlink:href="#ArialMT-30" transform="translate(139.013672 0)"/>
      </g>
     </g>
    </g>
    <g id="xtick_4">
     <g id="line2d_7">
      <path d="M 398.3975 334.087188 
L 398.3975 32.127187 
" clip-path="url(#pd727519b1c)" style="fill: none; stroke: #b0b0b0; stroke-opacity: 0.2; stroke-width: 0.5; stroke-linecap: square"/>
     </g>
     <g id="line2d_8">
      <g>
       <use xlink:href="#mf0c30257c6" x="398.3975" y="334.087188" style="stroke: #000000; stroke-width: 0.8"/>
      </g>
     </g>
     <g id="text_4">
      <!-- 0.55 -->
      <g transform="translate(378.936563 355.402813) scale(0.2 -0.2)">
       <use xlink:href="#ArialMT-30"/>
       <use xlink:href="#ArialMT-2e" transform="translate(55.615234 0)"/>
       <use xlink:href="#ArialMT-35" transform="translate(83.398438 0)"/>
       <use xlink:href="#ArialMT-35" transform="translate(139.013672 0)"/>
      </g>
     </g>
    </g>
    <g id="xtick_5">
     <g id="line2d_9">
      <path d="M 484.223333 334.087188 
L 484.223333 32.127187 
" clip-path="url(#pd727519b1c)" style="fill: none; stroke: #b0b0b0; stroke-opacity: 0.2; stroke-width: 0.5; stroke-linecap: square"/>
     </g>
     <g id="line2d_10">
      <g>
       <use xlink:href="#mf0c30257c6" x="484.223333" y="334.087188" style="stroke: #000000; stroke-width: 0.8"/>
      </g>
     </g>
     <g id="text_5">
      <!-- 0.60 -->
      <g transform="translate(464.762396 355.402813) scale(0.2 -0.2)">
       <defs>
        <path id="ArialMT-36" d="M 3184 3459 
L 2625 3416 
Q 2550 3747 2413 3897 
Q 2184 4138 1850 4138 
Q 1581 4138 1378 3988 
Q 1113 3794 959 3422 
Q 806 3050 800 2363 
Q 1003 2672 1297 2822 
Q 1591 2972 1913 2972 
Q 2475 2972 2870 2558 
Q 3266 2144 3266 1488 
Q 3266 1056 3080 686 
Q 2894 316 2569 119 
Q 2244 -78 1831 -78 
Q 1128 -78 684 439 
Q 241 956 241 2144 
Q 241 3472 731 4075 
Q 1159 4600 1884 4600 
Q 2425 4600 2770 4297 
Q 3116 3994 3184 3459 
z
M 888 1484 
Q 888 1194 1011 928 
Q 1134 663 1356 523 
Q 1578 384 1822 384 
Q 2178 384 2434 671 
Q 2691 959 2691 1453 
Q 2691 1928 2437 2201 
Q 2184 2475 1800 2475 
Q 1419 2475 1153 2201 
Q 888 1928 888 1484 
z
" transform="scale(0.015625)"/>
       </defs>
       <use xlink:href="#ArialMT-30"/>
       <use xlink:href="#ArialMT-2e" transform="translate(55.615234 0)"/>
       <use xlink:href="#ArialMT-36" transform="translate(83.398438 0)"/>
       <use xlink:href="#ArialMT-30" transform="translate(139.013672 0)"/>
      </g>
     </g>
    </g>
    <g id="xtick_6">
     <g id="line2d_11">
      <path d="M 570.049167 334.087188 
L 570.049167 32.127187 
" clip-path="url(#pd727519b1c)" style="fill: none; stroke: #b0b0b0; stroke-opacity: 0.2; stroke-width: 0.5; stroke-linecap: square"/>
     </g>
     <g id="line2d_12">
      <g>
       <use xlink:href="#mf0c30257c6" x="570.049167" y="334.087188" style="stroke: #000000; stroke-width: 0.8"/>
      </g>
     </g>
     <g id="text_6">
      <!-- 0.65 -->
      <g transform="translate(550.588229 355.402813) scale(0.2 -0.2)">
       <use xlink:href="#ArialMT-30"/>
       <use xlink:href="#ArialMT-2e" transform="translate(55.615234 0)"/>
       <use xlink:href="#ArialMT-36" transform="translate(83.398438 0)"/>
       <use xlink:href="#ArialMT-35" transform="translate(139.013672 0)"/>
      </g>
     </g>
    </g>
    <g id="xtick_7">
     <g id="line2d_13">
      <path d="M 655.875 334.087188 
L 655.875 32.127187 
" clip-path="url(#pd727519b1c)" style="fill: none; stroke: #b0b0b0; stroke-opacity: 0.2; stroke-width: 0.5; stroke-linecap: square"/>
     </g>
     <g id="line2d_14">
      <g>
       <use xlink:href="#mf0c30257c6" x="655.875" y="334.087188" style="stroke: #000000; stroke-width: 0.8"/>
      </g>
     </g>
     <g id="text_7">
      <!-- 0.70 -->
      <g transform="translate(636.414063 355.402813) scale(0.2 -0.2)">
       <defs>
        <path id="ArialMT-37" d="M 303 3981 
L 303 4522 
L 3269 4522 
L 3269 4084 
Q 2831 3619 2401 2847 
Q 1972 2075 1738 1259 
Q 1569 684 1522 0 
L 944 0 
Q 953 541 1156 1306 
Q 1359 2072 1739 2783 
Q 2119 3494 2547 3981 
L 303 3981 
z
" transform="scale(0.015625)"/>
       </defs>
       <use xlink:href="#ArialMT-30"/>
       <use xlink:href="#ArialMT-2e" transform="translate(55.615234 0)"/>
       <use xlink:href="#ArialMT-37" transform="translate(83.398438 0)"/>
       <use xlink:href="#ArialMT-30" transform="translate(139.013672 0)"/>
      </g>
     </g>
    </g>
    <g id="text_8">
     <!-- AUROC -->
     <g transform="translate(351.449219 381.988125) scale(0.26 -0.26)">
      <defs>
       <path id="ArialMT-41" d="M -9 0 
L 1750 4581 
L 2403 4581 
L 4278 0 
L 3588 0 
L 3053 1388 
L 1138 1388 
L 634 0 
L -9 0 
z
M 1313 1881 
L 2866 1881 
L 2388 3150 
Q 2169 3728 2063 4100 
Q 1975 3659 1816 3225 
L 1313 1881 
z
" transform="scale(0.015625)"/>
       <path id="ArialMT-55" d="M 3500 4581 
L 4106 4581 
L 4106 1934 
Q 4106 1244 3950 837 
Q 3794 431 3386 176 
Q 2978 -78 2316 -78 
Q 1672 -78 1262 144 
Q 853 366 678 786 
Q 503 1206 503 1934 
L 503 4581 
L 1109 4581 
L 1109 1938 
Q 1109 1341 1220 1058 
Q 1331 775 1601 622 
Q 1872 469 2263 469 
Q 2931 469 3215 772 
Q 3500 1075 3500 1938 
L 3500 4581 
z
" transform="scale(0.015625)"/>
       <path id="ArialMT-52" d="M 503 0 
L 503 4581 
L 2534 4581 
Q 3147 4581 3465 4457 
Q 3784 4334 3975 4021 
Q 4166 3709 4166 3331 
Q 4166 2844 3850 2509 
Q 3534 2175 2875 2084 
Q 3116 1969 3241 1856 
Q 3506 1613 3744 1247 
L 4541 0 
L 3778 0 
L 3172 953 
Q 2906 1366 2734 1584 
Q 2563 1803 2427 1890 
Q 2291 1978 2150 2013 
Q 2047 2034 1813 2034 
L 1109 2034 
L 1109 0 
L 503 0 
z
M 1109 2559 
L 2413 2559 
Q 2828 2559 3062 2645 
Q 3297 2731 3419 2920 
Q 3541 3109 3541 3331 
Q 3541 3656 3305 3865 
Q 3069 4075 2559 4075 
L 1109 4075 
L 1109 2559 
z
" transform="scale(0.015625)"/>
       <path id="ArialMT-4f" d="M 309 2231 
Q 309 3372 921 4017 
Q 1534 4663 2503 4663 
Q 3138 4663 3647 4359 
Q 4156 4056 4423 3514 
Q 4691 2972 4691 2284 
Q 4691 1588 4409 1038 
Q 4128 488 3612 205 
Q 3097 -78 2500 -78 
Q 1853 -78 1343 234 
Q 834 547 571 1087 
Q 309 1628 309 2231 
z
M 934 2222 
Q 934 1394 1379 917 
Q 1825 441 2497 441 
Q 3181 441 3623 922 
Q 4066 1403 4066 2288 
Q 4066 2847 3877 3264 
Q 3688 3681 3323 3911 
Q 2959 4141 2506 4141 
Q 1863 4141 1398 3698 
Q 934 3256 934 2222 
z
" transform="scale(0.015625)"/>
       <path id="ArialMT-43" d="M 3763 1606 
L 4369 1453 
Q 4178 706 3683 314 
Q 3188 -78 2472 -78 
Q 1731 -78 1267 223 
Q 803 525 561 1097 
Q 319 1669 319 2325 
Q 319 3041 592 3573 
Q 866 4106 1370 4382 
Q 1875 4659 2481 4659 
Q 3169 4659 3637 4309 
Q 4106 3959 4291 3325 
L 3694 3184 
Q 3534 3684 3231 3912 
Q 2928 4141 2469 4141 
Q 1941 4141 1586 3887 
Q 1231 3634 1087 3207 
Q 944 2781 944 2328 
Q 944 1744 1114 1308 
Q 1284 872 1643 656 
Q 2003 441 2422 441 
Q 2931 441 3284 734 
Q 3638 1028 3763 1606 
z
" transform="scale(0.015625)"/>
      </defs>
      <use xlink:href="#ArialMT-41"/>
      <use xlink:href="#ArialMT-55" transform="translate(66.699219 0)"/>
      <use xlink:href="#ArialMT-52" transform="translate(138.916016 0)"/>
      <use xlink:href="#ArialMT-4f" transform="translate(211.132812 0)"/>
      <use xlink:href="#ArialMT-43" transform="translate(288.916016 0)"/>
     </g>
    </g>
   </g>
   <g id="matplotlib.axis_2">
    <g id="ytick_1">
     <g id="line2d_15">
      <defs>
       <path id="m9ea0da8d71" d="M 0 0 
L -3.5 0 
" style="stroke: #000000; stroke-width: 0.8"/>
      </defs>
      <g>
       <use xlink:href="#m9ea0da8d71" x="140.92" y="298.689963" style="stroke: #000000; stroke-width: 0.8"/>
      </g>
     </g>
     <g id="text_9">
      <!-- GC Content -->
      <g transform="translate(7.2 296.304963) scale(0.24 -0.24)">
       <defs>
        <path id="ArialMT-47" d="M 2638 1797 
L 2638 2334 
L 4578 2338 
L 4578 638 
Q 4131 281 3656 101 
Q 3181 -78 2681 -78 
Q 2006 -78 1454 211 
Q 903 500 622 1047 
Q 341 1594 341 2269 
Q 341 2938 620 3517 
Q 900 4097 1425 4378 
Q 1950 4659 2634 4659 
Q 3131 4659 3532 4498 
Q 3934 4338 4162 4050 
Q 4391 3763 4509 3300 
L 3963 3150 
Q 3859 3500 3706 3700 
Q 3553 3900 3268 4020 
Q 2984 4141 2638 4141 
Q 2222 4141 1919 4014 
Q 1616 3888 1430 3681 
Q 1244 3475 1141 3228 
Q 966 2803 966 2306 
Q 966 1694 1177 1281 
Q 1388 869 1791 669 
Q 2194 469 2647 469 
Q 3041 469 3416 620 
Q 3791 772 3984 944 
L 3984 1797 
L 2638 1797 
z
" transform="scale(0.015625)"/>
        <path id="ArialMT-20" transform="scale(0.015625)"/>
        <path id="ArialMT-6f" d="M 213 1659 
Q 213 2581 725 3025 
Q 1153 3394 1769 3394 
Q 2453 3394 2887 2945 
Q 3322 2497 3322 1706 
Q 3322 1066 3130 698 
Q 2938 331 2570 128 
Q 2203 -75 1769 -75 
Q 1072 -75 642 372 
Q 213 819 213 1659 
z
M 791 1659 
Q 791 1022 1069 705 
Q 1347 388 1769 388 
Q 2188 388 2466 706 
Q 2744 1025 2744 1678 
Q 2744 2294 2464 2611 
Q 2184 2928 1769 2928 
Q 1347 2928 1069 2612 
Q 791 2297 791 1659 
z
" transform="scale(0.015625)"/>
        <path id="ArialMT-6e" d="M 422 0 
L 422 3319 
L 928 3319 
L 928 2847 
Q 1294 3394 1984 3394 
Q 2284 3394 2536 3286 
Q 2788 3178 2913 3003 
Q 3038 2828 3088 2588 
Q 3119 2431 3119 2041 
L 3119 0 
L 2556 0 
L 2556 2019 
Q 2556 2363 2490 2533 
Q 2425 2703 2258 2804 
Q 2091 2906 1866 2906 
Q 1506 2906 1245 2678 
Q 984 2450 984 1813 
L 984 0 
L 422 0 
z
" transform="scale(0.015625)"/>
        <path id="ArialMT-74" d="M 1650 503 
L 1731 6 
Q 1494 -44 1306 -44 
Q 1000 -44 831 53 
Q 663 150 594 308 
Q 525 466 525 972 
L 525 2881 
L 113 2881 
L 113 3319 
L 525 3319 
L 525 4141 
L 1084 4478 
L 1084 3319 
L 1650 3319 
L 1650 2881 
L 1084 2881 
L 1084 941 
Q 1084 700 1114 631 
Q 1144 563 1211 522 
Q 1278 481 1403 481 
Q 1497 481 1650 503 
z
" transform="scale(0.015625)"/>
        <path id="ArialMT-65" d="M 2694 1069 
L 3275 997 
Q 3138 488 2766 206 
Q 2394 -75 1816 -75 
Q 1088 -75 661 373 
Q 234 822 234 1631 
Q 234 2469 665 2931 
Q 1097 3394 1784 3394 
Q 2450 3394 2872 2941 
Q 3294 2488 3294 1666 
Q 3294 1616 3291 1516 
L 816 1516 
Q 847 969 1125 678 
Q 1403 388 1819 388 
Q 2128 388 2347 550 
Q 2566 713 2694 1069 
z
M 847 1978 
L 2700 1978 
Q 2663 2397 2488 2606 
Q 2219 2931 1791 2931 
Q 1403 2931 1139 2672 
Q 875 2413 847 1978 
z
" transform="scale(0.015625)"/>
       </defs>
       <use xlink:href="#ArialMT-47"/>
       <use xlink:href="#ArialMT-43" transform="translate(77.783203 0)"/>
       <use xlink:href="#ArialMT-20" transform="translate(150 0)"/>
       <use xlink:href="#ArialMT-43" transform="translate(177.783203 0)"/>
       <use xlink:href="#ArialMT-6f" transform="translate(250 0)"/>
       <use xlink:href="#ArialMT-6e" transform="translate(305.615234 0)"/>
       <use xlink:href="#ArialMT-74" transform="translate(361.230469 0)"/>
       <use xlink:href="#ArialMT-65" transform="translate(389.013672 0)"/>
       <use xlink:href="#ArialMT-6e" transform="translate(444.628906 0)"/>
       <use xlink:href="#ArialMT-74" transform="translate(500.244141 0)"/>
      </g>
      <!-- Baseline -->
      <g transform="translate(41.86125 321.689463) scale(0.24 -0.24)">
       <defs>
        <path id="ArialMT-42" d="M 469 0 
L 469 4581 
L 2188 4581 
Q 2713 4581 3030 4442 
Q 3347 4303 3526 4014 
Q 3706 3725 3706 3409 
Q 3706 3116 3547 2856 
Q 3388 2597 3066 2438 
Q 3481 2316 3704 2022 
Q 3928 1728 3928 1328 
Q 3928 1006 3792 729 
Q 3656 453 3456 303 
Q 3256 153 2954 76 
Q 2653 0 2216 0 
L 469 0 
z
M 1075 2656 
L 2066 2656 
Q 2469 2656 2644 2709 
Q 2875 2778 2992 2937 
Q 3109 3097 3109 3338 
Q 3109 3566 3000 3739 
Q 2891 3913 2687 3977 
Q 2484 4041 1991 4041 
L 1075 4041 
L 1075 2656 
z
M 1075 541 
L 2216 541 
Q 2509 541 2628 563 
Q 2838 600 2978 687 
Q 3119 775 3209 942 
Q 3300 1109 3300 1328 
Q 3300 1584 3169 1773 
Q 3038 1963 2805 2039 
Q 2572 2116 2134 2116 
L 1075 2116 
L 1075 541 
z
" transform="scale(0.015625)"/>
        <path id="ArialMT-61" d="M 2588 409 
Q 2275 144 1986 34 
Q 1697 -75 1366 -75 
Q 819 -75 525 192 
Q 231 459 231 875 
Q 231 1119 342 1320 
Q 453 1522 633 1644 
Q 813 1766 1038 1828 
Q 1203 1872 1538 1913 
Q 2219 1994 2541 2106 
Q 2544 2222 2544 2253 
Q 2544 2597 2384 2738 
Q 2169 2928 1744 2928 
Q 1347 2928 1158 2789 
Q 969 2650 878 2297 
L 328 2372 
Q 403 2725 575 2942 
Q 747 3159 1072 3276 
Q 1397 3394 1825 3394 
Q 2250 3394 2515 3294 
Q 2781 3194 2906 3042 
Q 3031 2891 3081 2659 
Q 3109 2516 3109 2141 
L 3109 1391 
Q 3109 606 3145 398 
Q 3181 191 3288 0 
L 2700 0 
Q 2613 175 2588 409 
z
M 2541 1666 
Q 2234 1541 1622 1453 
Q 1275 1403 1131 1340 
Q 988 1278 909 1158 
Q 831 1038 831 891 
Q 831 666 1001 516 
Q 1172 366 1500 366 
Q 1825 366 2078 508 
Q 2331 650 2450 897 
Q 2541 1088 2541 1459 
L 2541 1666 
z
" transform="scale(0.015625)"/>
        <path id="ArialMT-73" d="M 197 991 
L 753 1078 
Q 800 744 1014 566 
Q 1228 388 1613 388 
Q 2000 388 2187 545 
Q 2375 703 2375 916 
Q 2375 1106 2209 1216 
Q 2094 1291 1634 1406 
Q 1016 1563 777 1677 
Q 538 1791 414 1992 
Q 291 2194 291 2438 
Q 291 2659 392 2848 
Q 494 3038 669 3163 
Q 800 3259 1026 3326 
Q 1253 3394 1513 3394 
Q 1903 3394 2198 3281 
Q 2494 3169 2634 2976 
Q 2775 2784 2828 2463 
L 2278 2388 
Q 2241 2644 2061 2787 
Q 1881 2931 1553 2931 
Q 1166 2931 1000 2803 
Q 834 2675 834 2503 
Q 834 2394 903 2306 
Q 972 2216 1119 2156 
Q 1203 2125 1616 2013 
Q 2213 1853 2448 1751 
Q 2684 1650 2818 1456 
Q 2953 1263 2953 975 
Q 2953 694 2789 445 
Q 2625 197 2315 61 
Q 2006 -75 1616 -75 
Q 969 -75 630 194 
Q 291 463 197 991 
z
" transform="scale(0.015625)"/>
        <path id="ArialMT-6c" d="M 409 0 
L 409 4581 
L 972 4581 
L 972 0 
L 409 0 
z
" transform="scale(0.015625)"/>
        <path id="ArialMT-69" d="M 425 3934 
L 425 4581 
L 988 4581 
L 988 3934 
L 425 3934 
z
M 425 0 
L 425 3319 
L 988 3319 
L 988 0 
L 425 0 
z
" transform="scale(0.015625)"/>
       </defs>
       <use xlink:href="#ArialMT-42"/>
       <use xlink:href="#ArialMT-61" transform="translate(66.699219 0)"/>
       <use xlink:href="#ArialMT-73" transform="translate(122.314453 0)"/>
       <use xlink:href="#ArialMT-65" transform="translate(172.314453 0)"/>
       <use xlink:href="#ArialMT-6c" transform="translate(227.929688 0)"/>
       <use xlink:href="#ArialMT-69" transform="translate(250.146484 0)"/>
       <use xlink:href="#ArialMT-6e" transform="translate(272.363281 0)"/>
       <use xlink:href="#ArialMT-65" transform="translate(327.978516 0)"/>
      </g>
     </g>
    </g>
    <g id="ytick_2">
     <g id="line2d_16">
      <g>
       <use xlink:href="#m9ea0da8d71" x="140.92" y="240.898575" style="stroke: #000000; stroke-width: 0.8"/>
      </g>
     </g>
     <g id="text_10">
      <!-- Evo2 1B -->
      <g transform="translate(43.19625 249.48795) scale(0.24 -0.24)">
       <defs>
        <path id="ArialMT-45" d="M 506 0 
L 506 4581 
L 3819 4581 
L 3819 4041 
L 1113 4041 
L 1113 2638 
L 3647 2638 
L 3647 2100 
L 1113 2100 
L 1113 541 
L 3925 541 
L 3925 0 
L 506 0 
z
" transform="scale(0.015625)"/>
        <path id="ArialMT-76" d="M 1344 0 
L 81 3319 
L 675 3319 
L 1388 1331 
Q 1503 1009 1600 663 
Q 1675 925 1809 1294 
L 2547 3319 
L 3125 3319 
L 1869 0 
L 1344 0 
z
" transform="scale(0.015625)"/>
        <path id="ArialMT-32" d="M 3222 541 
L 3222 0 
L 194 0 
Q 188 203 259 391 
Q 375 700 629 1000 
Q 884 1300 1366 1694 
Q 2113 2306 2375 2664 
Q 2638 3022 2638 3341 
Q 2638 3675 2398 3904 
Q 2159 4134 1775 4134 
Q 1369 4134 1125 3890 
Q 881 3647 878 3216 
L 300 3275 
Q 359 3922 746 4261 
Q 1134 4600 1788 4600 
Q 2447 4600 2831 4234 
Q 3216 3869 3216 3328 
Q 3216 3053 3103 2787 
Q 2991 2522 2730 2228 
Q 2469 1934 1863 1422 
Q 1356 997 1212 845 
Q 1069 694 975 541 
L 3222 541 
z
" transform="scale(0.015625)"/>
        <path id="ArialMT-31" d="M 2384 0 
L 1822 0 
L 1822 3584 
Q 1619 3391 1289 3197 
Q 959 3003 697 2906 
L 697 3450 
Q 1169 3672 1522 3987 
Q 1875 4303 2022 4600 
L 2384 4600 
L 2384 0 
z
" transform="scale(0.015625)"/>
       </defs>
       <use xlink:href="#ArialMT-45"/>
       <use xlink:href="#ArialMT-76" transform="translate(66.699219 0)"/>
       <use xlink:href="#ArialMT-6f" transform="translate(116.699219 0)"/>
       <use xlink:href="#ArialMT-32" transform="translate(172.314453 0)"/>
       <use xlink:href="#ArialMT-20" transform="translate(227.929688 0)"/>
       <use xlink:href="#ArialMT-31" transform="translate(255.712891 0)"/>
       <use xlink:href="#ArialMT-42" transform="translate(311.328125 0)"/>
      </g>
     </g>
    </g>
    <g id="ytick_3">
     <g id="line2d_17">
      <g>
       <use xlink:href="#m9ea0da8d71" x="140.92" y="183.107187" style="stroke: #000000; stroke-width: 0.8"/>
      </g>
     </g>
     <g id="text_11">
      <!-- Evo2 7B -->
      <g transform="translate(43.19625 191.696562) scale(0.24 -0.24)">
       <use xlink:href="#ArialMT-45"/>
       <use xlink:href="#ArialMT-76" transform="translate(66.699219 0)"/>
       <use xlink:href="#ArialMT-6f" transform="translate(116.699219 0)"/>
       <use xlink:href="#ArialMT-32" transform="translate(172.314453 0)"/>
       <use xlink:href="#ArialMT-20" transform="translate(227.929688 0)"/>
       <use xlink:href="#ArialMT-37" transform="translate(255.712891 0)"/>
       <use xlink:href="#ArialMT-42" transform="translate(311.328125 0)"/>
      </g>
     </g>
    </g>
    <g id="ytick_4">
     <g id="line2d_18">
      <g>
       <use xlink:href="#m9ea0da8d71" x="140.92" y="125.3158" style="stroke: #000000; stroke-width: 0.8"/>
      </g>
     </g>
     <g id="text_12">
      <!-- EVA 21M -->
      <g transform="translate(35.6325 133.905175) scale(0.24 -0.24)">
       <defs>
        <path id="ArialMT-56" d="M 1803 0 
L 28 4581 
L 684 4581 
L 1875 1253 
Q 2019 853 2116 503 
Q 2222 878 2363 1253 
L 3600 4581 
L 4219 4581 
L 2425 0 
L 1803 0 
z
" transform="scale(0.015625)"/>
        <path id="ArialMT-4d" d="M 475 0 
L 475 4581 
L 1388 4581 
L 2472 1338 
Q 2622 884 2691 659 
Q 2769 909 2934 1394 
L 4031 4581 
L 4847 4581 
L 4847 0 
L 4263 0 
L 4263 3834 
L 2931 0 
L 2384 0 
L 1059 3900 
L 1059 0 
L 475 0 
z
" transform="scale(0.015625)"/>
       </defs>
       <use xlink:href="#ArialMT-45"/>
       <use xlink:href="#ArialMT-56" transform="translate(66.699219 0)"/>
       <use xlink:href="#ArialMT-41" transform="translate(126.023438 0)"/>
       <use xlink:href="#ArialMT-20" transform="translate(187.222656 0)"/>
       <use xlink:href="#ArialMT-32" transform="translate(215.005859 0)"/>
       <use xlink:href="#ArialMT-31" transform="translate(270.621094 0)"/>
       <use xlink:href="#ArialMT-4d" transform="translate(326.236328 0)"/>
      </g>
     </g>
    </g>
    <g id="ytick_5">
     <g id="line2d_19">
      <g>
       <use xlink:href="#m9ea0da8d71" x="140.92" y="67.524412" style="stroke: #000000; stroke-width: 0.8"/>
      </g>
     </g>
     <g id="text_13">
      <!-- EVA 1.4B -->
      <g transform="translate(32.9475 76.113787) scale(0.24 -0.24)">
       <use xlink:href="#ArialMT-45"/>
       <use xlink:href="#ArialMT-56" transform="translate(66.699219 0)"/>
       <use xlink:href="#ArialMT-41" transform="translate(126.023438 0)"/>
       <use xlink:href="#ArialMT-20" transform="translate(187.222656 0)"/>
       <use xlink:href="#ArialMT-31" transform="translate(215.005859 0)"/>
       <use xlink:href="#ArialMT-2e" transform="translate(270.621094 0)"/>
       <use xlink:href="#ArialMT-34" transform="translate(298.404297 0)"/>
       <use xlink:href="#ArialMT-42" transform="translate(354.019531 0)"/>
      </g>
     </g>
    </g>
   </g>
   <g id="patch_3">
    <path d="M -545.686667 320.361733 
L 433.588855 320.361733 
L 433.588855 277.018192 
L -545.686667 277.018192 
z
" clip-path="url(#pd727519b1c)" style="fill: #cfd0d1; opacity: 0.8; stroke: #000000; stroke-width: 1.2; stroke-linejoin: miter"/>
   </g>
   <g id="patch_4">
    <path d="M -545.686667 262.570345 
L 427.987343 262.570345 
L 427.987343 219.226805 
L -545.686667 219.226805 
z
" clip-path="url(#pd727519b1c)" style="fill: #73b9e7; opacity: 0.8; stroke: #000000; stroke-width: 1.2; stroke-linejoin: miter"/>
   </g>
   <g id="patch_5">
    <path d="M -545.686667 204.778958 
L 388.662034 204.778958 
L 388.662034 161.435417 
L -545.686667 161.435417 
z
" clip-path="url(#pd727519b1c)" style="fill: #73b9e7; opacity: 0.8; stroke: #000000; stroke-width: 1.2; stroke-linejoin: miter"/>
   </g>
   <g id="patch_6">
    <path d="M -545.686667 146.98757 
L 417.303787 146.98757 
L 417.303787 103.64403 
L -545.686667 103.64403 
z
" clip-path="url(#pd727519b1c)" style="fill: #ffa45b; opacity: 0.8; stroke: #000000; stroke-width: 1.2; stroke-linejoin: miter"/>
   </g>
   <g id="patch_7">
    <path d="M -545.686667 89.196183 
L 471.295157 89.196183 
L 471.295157 45.852642 
L -545.686667 45.852642 
z
" clip-path="url(#pd727519b1c)" style="fill: #ffa45b; opacity: 0.8; stroke: #000000; stroke-width: 1.2; stroke-linejoin: miter"/>
   </g>
   <g id="line2d_20">
    <path d="M 312.571667 334.087188 
L 312.571667 32.127187 
" clip-path="url(#pd727519b1c)" style="fill: none; stroke-dasharray: 5.55,2.4; stroke-dashoffset: 0; stroke: #808080; stroke-opacity: 0.6; stroke-width: 1.5"/>
   </g>
   <g id="patch_8">
    <path d="M 140.92 334.087188 
L 140.92 32.127187 
" style="fill: none; stroke: #000000; stroke-width: 1.2; stroke-linejoin: miter; stroke-linecap: square"/>
   </g>
   <g id="patch_9">
    <path d="M 655.875 334.087188 
L 655.875 32.127187 
" style="fill: none; stroke: #000000; stroke-width: 1.2; stroke-linejoin: miter; stroke-linecap: square"/>
   </g>
   <g id="patch_10">
    <path d="M 140.92 334.087188 
L 655.875 334.087188 
" style="fill: none; stroke: #000000; stroke-width: 1.2; stroke-linejoin: miter; stroke-linecap: square"/>
   </g>
   <g id="patch_11">
    <path d="M 140.92 32.127187 
L 655.875 32.127187 
" style="fill: none; stroke: #000000; stroke-width: 1.2; stroke-linejoin: miter; stroke-linecap: square"/>
   </g>
   <g id="text_14">
    <!-- Zero-shot Gene Essentiality Prediction -->
    <g transform="translate(176.585 26.127187) scale(0.26 -0.26)">
     <defs>
      <path id="ArialMT-5a" d="M 128 0 
L 128 563 
L 2475 3497 
Q 2725 3809 2950 4041 
L 394 4041 
L 394 4581 
L 3675 4581 
L 3675 4041 
L 1103 863 
L 825 541 
L 3750 541 
L 3750 0 
L 128 0 
z
" transform="scale(0.015625)"/>
      <path id="ArialMT-72" d="M 416 0 
L 416 3319 
L 922 3319 
L 922 2816 
Q 1116 3169 1280 3281 
Q 1444 3394 1641 3394 
Q 1925 3394 2219 3213 
L 2025 2691 
Q 1819 2813 1613 2813 
Q 1428 2813 1281 2702 
Q 1134 2591 1072 2394 
Q 978 2094 978 1738 
L 978 0 
L 416 0 
z
" transform="scale(0.015625)"/>
      <path id="ArialMT-2d" d="M 203 1375 
L 203 1941 
L 1931 1941 
L 1931 1375 
L 203 1375 
z
" transform="scale(0.015625)"/>
      <path id="ArialMT-68" d="M 422 0 
L 422 4581 
L 984 4581 
L 984 2938 
Q 1378 3394 1978 3394 
Q 2347 3394 2619 3248 
Q 2891 3103 3008 2847 
Q 3125 2591 3125 2103 
L 3125 0 
L 2563 0 
L 2563 2103 
Q 2563 2525 2380 2717 
Q 2197 2909 1863 2909 
Q 1613 2909 1392 2779 
Q 1172 2650 1078 2428 
Q 984 2206 984 1816 
L 984 0 
L 422 0 
z
" transform="scale(0.015625)"/>
      <path id="ArialMT-79" d="M 397 -1278 
L 334 -750 
Q 519 -800 656 -800 
Q 844 -800 956 -737 
Q 1069 -675 1141 -563 
Q 1194 -478 1313 -144 
Q 1328 -97 1363 -6 
L 103 3319 
L 709 3319 
L 1400 1397 
Q 1534 1031 1641 628 
Q 1738 1016 1872 1384 
L 2581 3319 
L 3144 3319 
L 1881 -56 
Q 1678 -603 1566 -809 
Q 1416 -1088 1222 -1217 
Q 1028 -1347 759 -1347 
Q 597 -1347 397 -1278 
z
" transform="scale(0.015625)"/>
      <path id="ArialMT-50" d="M 494 0 
L 494 4581 
L 2222 4581 
Q 2678 4581 2919 4538 
Q 3256 4481 3484 4323 
Q 3713 4166 3852 3881 
Q 3991 3597 3991 3256 
Q 3991 2672 3619 2267 
Q 3247 1863 2275 1863 
L 1100 1863 
L 1100 0 
L 494 0 
z
M 1100 2403 
L 2284 2403 
Q 2872 2403 3119 2622 
Q 3366 2841 3366 3238 
Q 3366 3525 3220 3729 
Q 3075 3934 2838 4000 
Q 2684 4041 2272 4041 
L 1100 4041 
L 1100 2403 
z
" transform="scale(0.015625)"/>
      <path id="ArialMT-64" d="M 2575 0 
L 2575 419 
Q 2259 -75 1647 -75 
Q 1250 -75 917 144 
Q 584 363 401 755 
Q 219 1147 219 1656 
Q 219 2153 384 2558 
Q 550 2963 881 3178 
Q 1213 3394 1622 3394 
Q 1922 3394 2156 3267 
Q 2391 3141 2538 2938 
L 2538 4581 
L 3097 4581 
L 3097 0 
L 2575 0 
z
M 797 1656 
Q 797 1019 1065 703 
Q 1334 388 1700 388 
Q 2069 388 2326 689 
Q 2584 991 2584 1609 
Q 2584 2291 2321 2609 
Q 2059 2928 1675 2928 
Q 1300 2928 1048 2622 
Q 797 2316 797 1656 
z
" transform="scale(0.015625)"/>
      <path id="ArialMT-63" d="M 2588 1216 
L 3141 1144 
Q 3050 572 2676 248 
Q 2303 -75 1759 -75 
Q 1078 -75 664 370 
Q 250 816 250 1647 
Q 250 2184 428 2587 
Q 606 2991 970 3192 
Q 1334 3394 1763 3394 
Q 2303 3394 2647 3120 
Q 2991 2847 3088 2344 
L 2541 2259 
Q 2463 2594 2264 2762 
Q 2066 2931 1784 2931 
Q 1359 2931 1093 2626 
Q 828 2322 828 1663 
Q 828 994 1084 691 
Q 1341 388 1753 388 
Q 2084 388 2306 591 
Q 2528 794 2588 1216 
z
" transform="scale(0.015625)"/>
     </defs>
     <use xlink:href="#ArialMT-5a"/>
     <use xlink:href="#ArialMT-65" transform="translate(61.083984 0)"/>
     <use xlink:href="#ArialMT-72" transform="translate(116.699219 0)"/>
     <use xlink:href="#ArialMT-6f" transform="translate(150 0)"/>
     <use xlink:href="#ArialMT-2d" transform="translate(205.615234 0)"/>
     <use xlink:href="#ArialMT-73" transform="translate(238.916016 0)"/>
     <use xlink:href="#ArialMT-68" transform="translate(288.916016 0)"/>
     <use xlink:href="#ArialMT-6f" transform="translate(344.53125 0)"/>
     <use xlink:href="#ArialMT-74" transform="translate(400.146484 0)"/>
     <use xlink:href="#ArialMT-20" transform="translate(427.929688 0)"/>
     <use xlink:href="#ArialMT-47" transform="translate(455.712891 0)"/>
     <use xlink:href="#ArialMT-65" transform="translate(533.496094 0)"/>
     <use xlink:href="#ArialMT-6e" transform="translate(589.111328 0)"/>
     <use xlink:href="#ArialMT-65" transform="translate(644.726562 0)"/>
     <use xlink:href="#ArialMT-20" transform="translate(700.341797 0)"/>
     <use xlink:href="#ArialMT-45" transform="translate(728.125 0)"/>
     <use xlink:href="#ArialMT-73" transform="translate(794.824219 0)"/>
     <use xlink:href="#ArialMT-73" transform="translate(844.824219 0)"/>
     <use xlink:href="#ArialMT-65" transform="translate(894.824219 0)"/>
     <use xlink:href="#ArialMT-6e" transform="translate(950.439453 0)"/>
     <use xlink:href="#ArialMT-74" transform="translate(1006.054688 0)"/>
     <use xlink:href="#ArialMT-69" transform="translate(1033.837891 0)"/>
     <use xlink:href="#ArialMT-61" transform="translate(1056.054688 0)"/>
     <use xlink:href="#ArialMT-6c" transform="translate(1111.669922 0)"/>
     <use xlink:href="#ArialMT-69" transform="translate(1133.886719 0)"/>
     <use xlink:href="#ArialMT-74" transform="translate(1156.103516 0)"/>
     <use xlink:href="#ArialMT-79" transform="translate(1183.886719 0)"/>
     <use xlink:href="#ArialMT-20" transform="translate(1233.886719 0)"/>
     <use xlink:href="#ArialMT-50" transform="translate(1261.669922 0)"/>
     <use xlink:href="#ArialMT-72" transform="translate(1328.369141 0)"/>
     <use xlink:href="#ArialMT-65" transform="translate(1361.669922 0)"/>
     <use xlink:href="#ArialMT-64" transform="translate(1417.285156 0)"/>
     <use xlink:href="#ArialMT-69" transform="translate(1472.900391 0)"/>
     <use xlink:href="#ArialMT-63" transform="translate(1495.117188 0)"/>
     <use xlink:href="#ArialMT-74" transform="translate(1545.117188 0)"/>
     <use xlink:href="#ArialMT-69" transform="translate(1572.900391 0)"/>
     <use xlink:href="#ArialMT-6f" transform="translate(1595.117188 0)"/>
     <use xlink:href="#ArialMT-6e" transform="translate(1650.732422 0)"/>
    </g>
   </g>
   <g id="PathCollection_1">
    <defs>
     <path id="m2611465a82" d="M 0 1.936492 
C 0.513564 1.936492 1.006162 1.732451 1.369306 1.369306 
C 1.732451 1.006162 1.936492 0.513564 1.936492 0 
C 1.936492 -0.513564 1.732451 -1.006162 1.369306 -1.369306 
C 1.006162 -1.732451 0.513564 -1.936492 0 -1.936492 
C -0.513564 -1.936492 -1.006162 -1.732451 -1.369306 -1.369306 
C -1.732451 -1.006162 -1.936492 -0.513564 -1.936492 0 
C -1.936492 0.513564 -1.732451 1.006162 -1.369306 1.369306 
C -1.006162 1.732451 -0.513564 1.936492 0 1.936492 
z
" style="stroke: #000000; stroke-opacity: 0.4"/>
    </defs>
    <g clip-path="url(#pd727519b1c)">
     <use xlink:href="#m2611465a82" x="492.720527" y="301.590163" style="fill-opacity: 0.4; stroke: #000000; stroke-opacity: 0.4"/>
     <use xlink:href="#m2611465a82" x="441.6561" y="288.271001" style="fill-opacity: 0.4; stroke: #000000; stroke-opacity: 0.4"/>
     <use xlink:href="#m2611465a82" x="666.893283" y="293.327062" style="fill-opacity: 0.4; stroke: #000000; stroke-opacity: 0.4"/>
     <use xlink:href="#m2611465a82" x="235.818922" y="296.409318" style="fill-opacity: 0.4; stroke: #000000; stroke-opacity: 0.4"/>
     <use xlink:href="#m2611465a82" x="330.855442" y="306.641627" style="fill-opacity: 0.4; stroke: #000000; stroke-opacity: 0.4"/>
    </g>
   </g>
   <g id="PathCollection_2">
    <g clip-path="url(#pd727519b1c)">
     <use xlink:href="#m2611465a82" x="500.972743" y="248.850797" style="fill-opacity: 0.4; stroke: #000000; stroke-opacity: 0.4"/>
     <use xlink:href="#m2611465a82" x="468.216864" y="251.11416" style="fill-opacity: 0.4; stroke: #000000; stroke-opacity: 0.4"/>
     <use xlink:href="#m2611465a82" x="430.836649" y="232.433844" style="fill-opacity: 0.4; stroke: #000000; stroke-opacity: 0.4"/>
     <use xlink:href="#m2611465a82" x="370.539666" y="238.561144" style="fill-opacity: 0.4; stroke: #000000; stroke-opacity: 0.4"/>
     <use xlink:href="#m2611465a82" x="369.370796" y="236.088654" style="fill-opacity: 0.4; stroke: #000000; stroke-opacity: 0.4"/>
    </g>
   </g>
   <g id="PathCollection_3">
    <g clip-path="url(#pd727519b1c)">
     <use xlink:href="#m2611465a82" x="259.013551" y="194.189622" style="fill-opacity: 0.4; stroke: #000000; stroke-opacity: 0.4"/>
     <use xlink:href="#m2611465a82" x="515.392848" y="172.244491" style="fill-opacity: 0.4; stroke: #000000; stroke-opacity: 0.4"/>
     <use xlink:href="#m2611465a82" x="446.062861" y="175.422259" style="fill-opacity: 0.4; stroke: #000000; stroke-opacity: 0.4"/>
     <use xlink:href="#m2611465a82" x="365.625977" y="189.756916" style="fill-opacity: 0.4; stroke: #000000; stroke-opacity: 0.4"/>
     <use xlink:href="#m2611465a82" x="357.214935" y="190.462298" style="fill-opacity: 0.4; stroke: #000000; stroke-opacity: 0.4"/>
    </g>
   </g>
   <g id="PathCollection_4">
    <g clip-path="url(#pd727519b1c)">
     <use xlink:href="#m2611465a82" x="434.967047" y="132.634397" style="fill-opacity: 0.4; stroke: #000000; stroke-opacity: 0.4"/>
     <use xlink:href="#m2611465a82" x="494.350992" y="129.841045" style="fill-opacity: 0.4; stroke: #000000; stroke-opacity: 0.4"/>
     <use xlink:href="#m2611465a82" x="492.31082" y="124.743517" style="fill-opacity: 0.4; stroke: #000000; stroke-opacity: 0.4"/>
     <use xlink:href="#m2611465a82" x="314.830177" y="126.888997" style="fill-opacity: 0.4; stroke: #000000; stroke-opacity: 0.4"/>
     <use xlink:href="#m2611465a82" x="350.0599" y="130.141863" style="fill-opacity: 0.4; stroke: #000000; stroke-opacity: 0.4"/>
    </g>
   </g>
   <g id="PathCollection_5">
    <g clip-path="url(#pd727519b1c)">
     <use xlink:href="#m2611465a82" x="376.878342" y="64.938759" style="fill-opacity: 0.4; stroke: #000000; stroke-opacity: 0.4"/>
     <use xlink:href="#m2611465a82" x="591.470619" y="75.858072" style="fill-opacity: 0.4; stroke: #000000; stroke-opacity: 0.4"/>
     <use xlink:href="#m2611465a82" x="556.049558" y="72.329312" style="fill-opacity: 0.4; stroke: #000000; stroke-opacity: 0.4"/>
     <use xlink:href="#m2611465a82" x="433.315375" y="70.613666" style="fill-opacity: 0.4; stroke: #000000; stroke-opacity: 0.4"/>
     <use xlink:href="#m2611465a82" x="398.76189" y="68.539923" style="fill-opacity: 0.4; stroke: #000000; stroke-opacity: 0.4"/>
    </g>
   </g>
  </g>
 </g>
 <defs>
  <clipPath id="pd727519b1c">
   <rect x="140.92" y="32.127187" width="514.955" height="301.96"/>
  </clipPath>
 </defs>
</svg>
